<?xml version="1.0" encoding="UTF-8" standalone="no"?>
<svg width="450px" height="340px" viewBox="0 0 450 340" version="1.1" xmlns="http://www.w3.org/2000/svg" xmlns:xlink="http://www.w3.org/1999/xlink" xmlns:sketch="http://www.bohemiancoding.com/sketch/ns">
    <title>referrals</title>
    <description>Created with Sketch (http://www.bohemiancoding.com/sketch)</description>
    <defs></defs>
    <g id="Page-2" stroke="none" stroke-width="1" fill="none" fill-rule="evenodd" sketch:type="MSPage">
        <g id="referrals" sketch:type="MSArtboardGroup">
            <g id="Rectangle-129-+-Rectangle-129" sketch:type="MSLayerGroup" transform="translate(103.000000, 117.000000)" stroke="#262629" stroke-width="3.37837838" stroke-linejoin="round">
                <rect id="Rectangle-129" fill="#1EBD9A" sketch:type="MSShapeGroup" x="0" y="1" width="250" height="104"></rect>
                <path d="M7.5,85.0141088 L7.5,19.6155209 L7.5,19.6155209 C8.2990498,19.8204566 9.13675107,19.9294533 10,19.9294533 C15.5228478,19.9294533 20,15.4680935 20,9.96472663 L230,9.96472663 C230,15.4680935 234.477152,19.9294533 240,19.9294533 C240.863249,19.9294533 241.70095,19.8204566 242.5,19.6155209 L242.5,19.6155208 L242.5,85.0141088 L242.5,85.0141088 C241.70095,84.809173 240.863249,84.7001764 240,84.7001764 C234.477152,84.7001764 230,89.1615362 230,94.664903 C230,95.4564587 230.092621,96.226458 230.267652,96.9647266 L19.7323483,96.9647266 C19.9073793,96.226458 20,95.4564587 20,94.664903 C20,89.1615362 15.5228478,84.7001764 10,84.7001764 C9.13675107,84.7001764 8.2990498,84.809173 7.5,85.0141088 Z" id="Rectangle-129" fill="#FFFFFF" sketch:type="MSShapeGroup"></path>
            </g>
            <text id="for-referrals" sketch:type="MSTextLayer" font-family="Alice" font-size="31" font-weight="normal" fill="#1C1C1E">
                <tspan x="145" y="273">for referrals</tspan>
            </text>
            <text id="Earn" sketch:type="MSTextLayer" font-family="Alice" font-size="31" font-weight="normal" fill="#262629">
                <tspan x="195" y="80">Earn</tspan>
            </text>
            <text id="5%" sketch:type="MSTextLayer" font-family="Norwester" font-size="71" font-style="condensed" font-weight="normal" fill="#C7A057">
                <tspan x="184" y="200">5%</tspan>
            </text>
            <circle id="Oval" stroke="#262629" stroke-width="3" sketch:type="MSShapeGroup" cx="224" cy="170" r="168"></circle>
        </g>
    </g>
</svg>